<?xml version="1.0" encoding="UTF-8"?>
<svg version="1.1" xmlns="http://www.w3.org/2000/svg" xmlns:xlink="http://www.w3.org/1999/xlink" viewBox="-0.1807 -0.1807 20.2832 20.2832">
 <defs>
  <linearGradient id="gradient1" x1="5" x2="5" y2="19.9219" gradientUnits="userSpaceOnUse">
   <stop offset="0" stop-color="#67dc85" stop-opacity="0"/>
   <stop offset="1" stop-color="#34c759" stop-opacity="0"/>
  </linearGradient>
  <linearGradient id="gradient2" x1="5" x2="5" y2="19.9219" gradientUnits="userSpaceOnUse">
   <stop offset="0" stop-color="white" stop-opacity="1"/>
   <stop offset="1" stop-color="#e2e2e2" stop-opacity="1"/>
  </linearGradient>
 </defs>
 <g>
  <path d="M9.96094 19.9219C15.459 19.9219 19.9219 15.4492 19.9219 9.96094C19.9219 4.46289 15.459 0 9.96094 0C4.47266 0 0 4.46289 0 9.96094C0 15.4492 4.47266 19.9219 9.96094 19.9219Z" fill="url(#gradient1)"/>
  <path d="M9.96094 11.582C9.36523 11.582 8.86719 11.25 8.54492 10.752L5.18555 5.74219C4.84375 5.22461 5.36133 4.70703 5.85938 5.05859L10.8984 8.62305C11.3281 8.92578 11.6016 9.4043 11.6016 9.96094C11.6016 10.8594 10.8691 11.582 9.96094 11.582Z" fill="url(#gradient2)"/>
 </g>
</svg>